#!OML:ASF F:\VICON\USERDATA\INSTALL\rory3\rory3.ASF
:FULLY-SPECIFIED
:DEGREES
375
root 1.21092 17.7292 40.2141 -4.07307 -5.54308 0.284127
lowerback 9.86413 0.976335 -0.114189
upperback 0.708236 1.32703 0.852315
thorax -4.81777 0.665554 0.76792
lowerneck -13.4741 -2.32284 -2.72062
upperneck 23.2709 -2.79229 0.67755
head 9.62891 -1.46584 0.351673
rclavicle -1.17842e-014 2.06736e-014
rhumerus -28.0567 -18.9417 -78.9557
rradius 25.9627
rwrist 5.52284
rhand -17.1277 22.5282
rfingers 7.12502
rthumb 9.11211 -7.25498
lclavicle -1.17842e-014 2.06736e-014
lhumerus -36.8797 0.301479 83.1717
lradius 25.015
lwrist 5.18414
lhand -29.2194 18.8469
lfingers 7.12502
lthumb -2.56357 48.8112
rfemur -21.2438 -3.57636 21.1435
rtibia 75.6865
rfoot -5.35916 -4.83139
rtoes 9.0958
lfemur -9.27899 -5.4042 -25.9506
ltibia 33.4934
lfoot -14.8996 -0.270775
ltoes 5.12867
376
root 1.21317 17.721 40.3897 -4.09219 -5.44899 0.0882165
lowerback 9.75983 0.908373 0.130319
upperback 0.974883 1.26391 0.930343
thorax -4.47653 0.629602 0.723998
lowerneck -14.6569 -2.59099 -2.96076
upperneck 23.7168 -3.12336 0.858602
head 10.027 -1.61469 0.396566
rclavicle -1.46355e-014 3.57812e-015
rhumerus -27.8936 -18.8611 -79.0462
rradius 26.1808
rwrist 5.27492
rhand -16.9989 22.3965
rfingers 7.12502
rthumb 9.23644 -7.38116
lclavicle -1.46355e-014 3.57812e-015
lhumerus -35.7923 -0.55023 83.3996
lradius 25.2171
lwrist 6.0143
lhand -29.0203 19.1426
lfingers 7.12502
lthumb -2.37135 49.1091
rfemur -22.343 -3.59806 21.5628
rtibia 74.9006
rfoot -6.54796 -4.57542
rtoes 6.61258
lfemur -8.58494 -5.49831 -25.9103
ltibia 33.45
lfoot -15.2936 0.010671
ltoes 5.07384
377
root 1.21554 17.7236 40.5555 -3.98094 -5.25487 0.0561969
lowerback 9.76007 0.730626 0.0745958
upperback 1.1671 1.02332 1.01267
thorax -4.27563 0.511752 0.874503
lowerneck -14.6827 -2.33214 -2.87673
upperneck 23.1233 -2.76061 0.813489
head 9.8099 -1.4432 0.415773
rclavicle 6.07536e-015 -2.38542e-015
rhumerus -27.5512 -18.7192 -79.2359
rradius 26.2864
rwrist 5.18622
rhand -17.1138 22.4388
rfingers 7.12502
rthumb 9.12549 -7.3438
lclavicle 6.07536e-015 -2.38542e-015
lhumerus -34.8122 -0.782163 83.3395
lradius 25.6838
lwrist 6.34729
lhand -28.9511 19.77
lfingers 7.12502
lthumb -2.30453 49.7373
rfemur -23.6238 -3.64602 21.8025
rtibia 73.9769
rfoot -7.18551 -4.44306
rtoes 4.37024
lfemur -8.087 -5.36207 -26.0183
ltibia 33.3435
lfoot -15.5253 -0.166821
ltoes 6.15754
378
root 1.22133 17.7234 40.7266 -3.9121 -5.00369 0.03612
lowerback 9.90346 0.558028 0.102022
upperback 0.903375 0.80344 1.06497
thorax -4.62769 0.40389 0.94068
lowerneck -14.6142 -2.56319 -3.15048
upperneck 23.729 -3.03008 0.825506
head 10.0246 -1.59342 0.429265
rclavicle -3.91357e-015 -9.14409e-015
rhumerus -28.2856 -18.2576 -79.1316
rradius 26.5838
rwrist 4.91628
rhand -16.9553 22.6788
rfingers 7.12502
rthumb 9.27849 -7.09698
lclavicle -3.91357e-015 -9.14409e-015
lhumerus -34.7533 -1.2534 83.2515
lradius 26.1692
lwrist 6.25217
lhand -28.1408 21.4055
lfingers 7.12502
lthumb -1.52191 51.3798
rfemur -24.796 -3.78761 21.9404
rtibia 72.9743
rfoot -8.24625 -4.25575
rtoes 3.9206
lfemur -7.3244 -5.33202 -26.1799
ltibia 33.0623
lfoot -15.7501 -0.072565
ltoes 6.09624
379
root 1.22822 17.7087 40.9091 -3.997 -4.80003 0.816367
lowerback 9.92805 0.532668 -0.518203
upperback 0.759608 0.690985 0.829111
thorax -4.79411 0.359505 1.0594
lowerneck -14.157 -2.54527 -3.12039
upperneck 23.7629 -3.01907 0.783546
head 9.94785 -1.59318 0.416502
rclavicle -6.33626e-016 -1.59028e-014
rhumerus -29.073 -17.8646 -79.0374
rradius 26.9678
rwrist 4.51781
rhand -16.7391 22.9725
rfingers 7.12502
rthumb 9.48711 -6.79393
lclavicle -6.33626e-016 -1.59028e-014
lhumerus -34.5392 -2.53486 83.4097
lradius 26.7032
lwrist 6.91332
lhand -27.7835 22.0377
lfingers 7.12502
lthumb -1.17679 52.0142
rfemur -25.8336 -3.94571 21.0947
rtibia 71.9691
rfoot -9.14488 -3.85614
rtoes 3.80394
lfemur -6.3144 -5.28051 -27.2625
ltibia 32.6812
lfoot -16.112 0.403904
ltoes 2.56172
380
root 1.22482 17.693 41.0849 -4.11529 -4.66197 1.52404
lowerback 10.0088 0.514327 -1.24695
upperback 0.784272 0.576155 0.657436
thorax -4.81633 0.316239 1.30688
lowerneck -13.8468 -2.36538 -2.98414
upperneck 23.4641 -2.79465 0.734796
head 9.7739 -1.4833 0.410163
rclavicle -1.48716e-014 -1.98785e-015
rhumerus -29.5029 -17.6928 -79.0131
rradius 27.2799
rwrist 4.41836
rhand -16.7025 22.7987
rfingers 7.12502
rthumb 9.52239 -6.96616
lclavicle -1.48716e-014 -1.98785e-015
lhumerus -33.9814 -3.06976 83.3002
lradius 27.2179
lwrist 7.05336
lhand -28.0226 22.0175
lfingers 7.12502
lthumb -1.40773 51.9926
rfemur -26.8338 -3.89394 20.439
rtibia 70.7442
rfoot -9.92992 -3.68896
rtoes 3.13267
lfemur -5.37688 -5.29093 -28.2008
ltibia 32.3188
lfoot -16.5274 0.816882
ltoes 0.389329
381
root 1.21243 17.6874 41.2383 -3.96058 -4.8343 1.16812
lowerback 10.2019 0.490613 -1.15141
upperback 0.838782 0.562993 0.847483
thorax -4.86791 0.309542 1.45233
lowerneck -14.6288 -2.5001 -3.05347
upperneck 23.8183 -2.93408 0.695179
head 10.0534 -1.55612 0.37916
rclavicle 1.72073e-014 1.19271e-014
rhumerus -29.3481 -17.3713 -79.1626
rradius 27.248
rwrist 4.3744
rhand -16.9181 22.2439
rfingers 7.12502
rthumb 9.31435 -7.53035
lclavicle 1.72073e-014 1.19271e-014
lhumerus -33.1957 -2.8486 82.8804
lradius 27.6943
lwrist 6.64275
lhand -28.8021 21.5973
lfingers 7.12502
lthumb -2.16061 51.5661
rfemur -28.0333 -3.26731 21.1556
rtibia 69.1609
rfoot -10.5422 -4.09849
rtoes 2.56337
lfemur -4.8186 -4.94304 -27.8156
ltibia 31.9522
lfoot -16.8571 0.973881
ltoes -0.305169
382
root 1.2046 17.6913 41.3896 -3.72405 -4.91508 0.594399
lowerback 10.3928 0.407342 -0.716285
upperback 0.891696 0.511062 1.04705
thorax -4.91548 0.276673 1.42203
lowerneck -14.8326 -2.40798 -3.01514
upperneck 23.4891 -2.81387 0.736006
head 9.97158 -1.49038 0.401679
rclavicle -2.23633e-016 1.11319e-014
rhumerus -29.0955 -17.1233 -79.3711
rradius 27.1492
rwrist 4.23979
rhand -16.608 22.2374
rfingers 7.12502
rthumb 9.61357 -7.5232
lclavicle -2.23633e-016 1.11319e-014
lhumerus -32.4368 -2.56666 82.4396
lradius 28.2539
lwrist 6.57379
lhand -28.6162 22.1024
lfingers 7.12502
lthumb -1.98102 52.0729
rfemur -29.0924 -2.73941 22.0441
rtibia 67.2608
rfoot -11.1408 -4.57214
rtoes 1.48152
lfemur -4.31802 -4.63718 -27.187
ltibia 31.5484
lfoot -17.0938 0.9833
ltoes -0.607966
383
root 1.20295 17.7021 41.5591 -3.62812 -4.77123 0.602571
lowerback 10.3954 0.321476 -0.756899
upperback 0.876554 0.39351 1.06901
thorax -4.92962 0.219917 1.48492
lowerneck -14.3955 -2.2048 -2.90333
upperneck 23.0416 -2.56195 0.716379
head 9.72158 -1.36664 0.415005
rclavicle -1.44864e-014 -1.19271e-015
rhumerus -29.2843 -16.7703 -79.4329
rradius 27.1361
rwrist 3.68992
rhand -16.4101 22.7802
rfingers 7.12502
rthumb 9.80448 -6.97155
lclavicle -1.44864e-014 -1.19271e-015
lhumerus -31.86 -2.67457 82.1931
lradius 28.7227
lwrist 6.90143
lhand -27.7055 24.027
lfingers 7.12502
lthumb -1.1015 54.0039
rfemur -29.8232 -2.51176 22.148
rtibia 65.1489
rfoot -11.9598 -4.89364
rtoes 0.110388
lfemur -3.46801 -4.41528 -27.241
ltibia 30.903
lfoot -17.2934 0.749035
ltoes 0.407054
384
root 1.20358 17.7143 41.748 -3.62693 -4.46743 1.14541
lowerback 10.2644 0.199545 -1.34562
upperback 0.872359 0.160283 0.982969
thorax -4.85475 0.115777 1.76083
lowerneck -14.8826 -2.42303 -3.3297
upperneck 23.7055 -2.7941 0.888462
head 10.0664 -1.49255 0.509058
rclavicle 9.11925e-015 1.03368e-014
rhumerus -29.5313 -16.2942 -79.4466
rradius 27.3647
rwrist 3.78791
rhand -16.6405 22.0358
rfingers 7.12502
rthumb 9.58221 -7.72627
lclavicle 9.11925e-015 1.03368e-014
lhumerus -31.3435 -3.22647 82.1665
lradius 29.0886
lwrist 7.77393
lhand -28.18 23.7678
lfingers 7.12502
lthumb -1.55978 53.7419
rfemur -30.2652 -2.49655 21.5511
rtibia 62.8651
rfoot -12.5755 -5.04898
rtoes -1.25259
lfemur -2.3025 -4.48939 -27.9445
ltibia 29.9411
lfoot -17.3035 0.499496
ltoes 1.81421
385
root 1.20545 17.7219 41.9484 -3.76217 -4.1549 1.94229
lowerback 10.2743 0.0781075 -2.13031
upperback 0.977598 -0.0995533 0.806041
thorax -4.73859 -0.000550415 2.05567
lowerneck -15.4111 -2.3895 -3.44114
upperneck 24.0984 -2.70506 0.903008
head 10.3099 -1.45917 0.537703
rclavicle -3.05631e-015 -5.1684e-015
rhumerus -29.5521 -16.1269 -79.4572
rradius 27.3435
rwrist 3.8646
rhand -16.2207 21.6615
rfingers 7.12502
rthumb 9.98725 -8.08159
lclavicle -3.05631e-015 -5.1684e-015
lhumerus -30.9588 -3.6017 82.0607
lradius 29.8548
lwrist 8.68492
lhand -29.5358 21.021
lfingers 7.12502
lthumb -2.86921 50.9815
rfemur -30.3992 -2.57028 20.6024
rtibia 60.3583
rfoot -12.627 -5.33715
rtoes -1.69078
lfemur -0.903353 -4.31836 -28.9331
ltibia 28.8769
lfoot -17.3045 0.259946
ltoes 1.80565
386
root 1.19565 17.7294 42.132 -3.66172 -4.06603 2.12131
lowerback 10.1425 0.000766561 -2.41612
upperback 1.03465 -0.232774 0.777716
thorax -4.5975 -0.0636626 2.20496
lowerneck -15.2157 -2.15557 -3.20387
upperneck 23.7503 -2.41025 0.780442
head 10.1337 -1.31572 0.496964
rclavicle -4.27387e-015 -1.98785e-015
rhumerus -29.6302 -15.9167 -79.5697
rradius 27.3388
rwrist 3.69507
rhand -15.9601 21.7161
rfingers 7.12502
rthumb 10.2386 -8.01474
lclavicle -4.27387e-015 -1.98785e-015
lhumerus -30.4933 -3.84062 81.7534
lradius 30.6024
lwrist 8.96117
lhand -29.6951 20.6503
lfingers 7.12502
lthumb -3.02299 50.6087
rfemur -30.6967 -2.15824 20.4424
rtibia 57.6317
rfoot -12.3938 -6.04193
rtoes -1.65985
lfemur 0.10097 -3.80089 -29.0766
ltibia 27.8864
lfoot -17.3328 -0.0483954
ltoes 1.34925
387
root 1.17853 17.7373 42.298 -3.30386 -4.17758 1.49284
lowerback 9.77871 -0.0270255 -1.98593
upperback 1.02251 -0.204456 0.997517
thorax -4.40941 -0.0581717 2.18486
lowerneck -14.9192 -2.30333 -3.52739
upperneck 23.4 -2.63843 1.15483
head 9.96696 -1.40613 0.656398
rclavicle -1.56791e-014 -2.18663e-014
rhumerus -29.7639 -15.7763 -79.6189
rradius 27.3677
rwrist 3.54536
rhand -16.1809 22.1174
rfingers 7.12502
rthumb 10.0257 -7.62382
lclavicle -1.56791e-014 -2.18663e-014
lhumerus -29.7567 -4.09684 81.4838
lradius 30.8612
lwrist 9.07532
lhand -28.7662 22.0511
lfingers 7.12502
lthumb -2.12587 52.0202
rfemur -31.1991 -1.23827 21.241
rtibia 54.6279
rfoot -12.0972 -7.13553
rtoes -2.13325
lfemur 0.80338 -3.30563 -28.2487
ltibia 26.8804
lfoot -17.3928 -0.465743
ltoes 0.552686
388
root 1.16696 17.7258 42.4693 -3.07889 -4.16612 1.4181
lowerback 9.67751 -0.0511045 -2.04369
upperback 0.961906 -0.237609 1.06959
thorax -4.41393 -0.0722462 2.29665
lowerneck -15.0626 -2.37911 -3.63451
upperneck 23.5744 -2.71474 1.15885
head 10.061 -1.45058 0.663954
rclavicle -9.51682e-015 5.1684e-015
rhumerus -29.9081 -15.7992 -79.5082
rradius 27.2534
rwrist 3.46527
rhand -16.2349 22.7158
rfingers 7.12502
rthumb 9.97356 -7.02787
lclavicle -9.51682e-015 5.1684e-015
lhumerus -29.2126 -4.13264 81.2441
lradius 31.2049
lwrist 9.15194
lhand -27.639 22.4778
lfingers 7.12502
lthumb -1.03724 52.4551
rfemur -31.5456 -0.514163 21.3145
rtibia 51.5291
rfoot -11.761 -8.01653
rtoes -2.61696
lfemur 1.6817 -3.11548 -28.1192
ltibia 25.9666
lfoot -17.5407 -0.961396
ltoes 1.82486
